<svg width="512" height="512" viewBox="0 0 512 512" fill="none" xmlns="http://www.w3.org/2000/svg" role="img" aria-labelledby="title desc">
  <title id="title">Illustrasjon av ekstern sykefraværsoppfølging</title>
  <desc id="desc">To personer er koblet sammen digitalt mellom helse og arbeid, med dialogbobler, medisinsk symbol og arbeidsmappe.</desc>
  <rect width="512" height="512" rx="128" fill="#F6F7F9"/>
  <rect x="56" y="64" width="400" height="384" rx="56" fill="#FFFFFF"/>
  <rect x="56" y="64" width="400" height="384" rx="56" stroke="#DDE3EA" stroke-width="8"/>

  <circle cx="156" cy="176" r="44" fill="#66CBEC"/>
  <circle cx="156" cy="164" r="18" fill="#FFFFFF"/>
  <path d="M126 210C126 189.013 143.013 172 164 172H148C168.987 172 186 189.013 186 210V224H126V210Z" fill="#0067C5"/>

  <circle cx="356" cy="176" r="44" fill="#0067C5"/>
  <circle cx="356" cy="164" r="18" fill="#FFFFFF"/>
  <path d="M326 210C326 189.013 343.013 172 364 172H348C368.987 172 386 189.013 386 210V224H326V210Z" fill="#66CBEC"/>

  <path d="M182 156C212 128 244 128 274 156" stroke="#66CBEC" stroke-width="10" stroke-linecap="round"/>
  <path d="M238 146H276C290.359 146 302 157.641 302 172V190C302 204.359 290.359 216 276 216H262L238 236V216C223.641 216 212 204.359 212 190V172C212 157.641 223.641 146 238 146Z" fill="#E6F7FD"/>
  <circle cx="242" cy="181" r="8" fill="#0067C5"/>
  <circle cx="270" cy="181" r="8" fill="#0067C5"/>
  <circle cx="298" cy="181" r="8" fill="#0067C5"/>

  <rect x="104" y="278" width="120" height="92" rx="28" fill="#EAF0F5"/>
  <path d="M154 300V320H140V334H154V354H168V334H182V320H168V300H154Z" fill="#0067C5"/>
  <rect x="288" y="278" width="120" height="92" rx="28" fill="#EAF0F5"/>
  <rect x="314" y="312" width="68" height="42" rx="10" fill="#0067C5"/>
  <path d="M334 312V302C334 294.268 340.268 288 348 288C355.732 288 362 294.268 362 302V312" stroke="#66CBEC" stroke-width="10" stroke-linecap="round"/>

  <path d="M224 324H288" stroke="#0067C5" stroke-width="12" stroke-linecap="round"/>
  <path d="M240 308L224 324L240 340" stroke="#0067C5" stroke-width="12" stroke-linecap="round" stroke-linejoin="round"/>
  <path d="M272 308L288 324L272 340" stroke="#66CBEC" stroke-width="12" stroke-linecap="round" stroke-linejoin="round"/>

  <rect x="152" y="392" width="208" height="16" rx="8" fill="#DDE3EA"/>
</svg>
